---
title: "Low bitrate when ripping CD with Asunder"
date: 2011-03-16
forum: General Help
---

### Post by gabriella on 2011-03-16
I just ripped a CD to PM3 using Asunder.

I used the following parameters:
MP3
Variable bitrate
Highest quality which seems to be about average 245 kbps

However, all the ripped tracks are showing a bitrate of 96 kbps. Whats wrong with this? Is there a problem with Lame perhaps? Any other ideas please.

Thanks

---

### Post by gabriella on 2011-03-17
anyone?

---

### Post by gabriella on 2011-03-17
This is the most bizare problem, I don't know what to do.

I previously had Asunder installed and it worked well for me. That was when I was running Karmic. I switched to Maverick back last fall and recently installed Asunder and this happens. I've tried uninstalling Aunder and re=installing several times. The result is always the same: when I rip a CD I get a bitrate of 96 kbps!

---

### Post by gabriella on 2011-03-18
Help!

---

### Post by khelben1979 on 2011-03-18
There are other software which can use the LAME encoder. Have you ever tried [GRIP?]("http://en.wikipedia.org/wiki/Grip_%28software%29")

It might be a bug in that version of Asunder which causes the problem for you b.t.w.

---

### Post by andrew.46 on 2011-03-18
> **gabriella said:**
> However, all the ripped tracks are showing a bitrate of 96 kbps. Whats wrong with this? Is there a problem with Lame perhaps? Any other ideas please.

Can I ask what application you are using to read the bitrates? One well worth looking at is mediainfo, I show an example of the typical output generated by this application:

```

andrew@skamandros~/samples$ **[COLOR="Red"]mediainfo guardians.mov [/COLOR]**
General
Complete name                    : guardians.mov
Format                           : MPEG-4
Format profile                   : QuickTime
Codec ID                         : qt  
File size                        : 41.9 MiB
Duration                         : 2mn 19s
Overall bit rate                 : 2 517 Kbps
Movie name                       : Legend of the Guardians
Performer                        : Warner Bros. Pictures
Encoded date                     : UTC 2010-04-01 00:23:29
Tagged date                      : UTC 2010-04-01 00:23:35
Writing library                  : Apple QuickTime
Copyright                        : Copyright 2010

Video
ID                               : 1
Format                           : AVC
Format/Info                      : Advanced Video Codec
Format profile                   : Main@L3.0
Format settings, CABAC           : No
Format settings, ReFrames        : 2 frames
Codec ID                         : avc1
Codec ID/Info                    : Advanced Video Coding
Duration                         : 2mn 19s
Bit rate mode                    : Variable
Bit rate                         : 2 363 Kbps
Width                            : 848 pixels
Height                           : 358 pixels
Display aspect ratio             : 2.35:1
Frame rate mode                  : Variable
Frame rate                       : 23.976 fps
Minimum frame rate               : 23.970 fps
Maximum frame rate               : 24.212 fps
Color space                      : YUV
Chroma subsampling               : 4:2:0
Bit depth                        : 8 bits
Scan type                        : Progressive
Bits/(Pixel*Frame)               : 0.325
Stream size                      : 39.4 MiB (94%)
Language                         : English
Encoded date                     : UTC 2010-04-01 00:17:33
Tagged date                      : UTC 2010-04-01 00:23:35
Color primaries                  : BT.709-5, BT.1361, IEC 61966-2-4, SMPTE RP177
Transfer characteristics         : BT.709-5, BT.1361
Matrix coefficients              : BT.709-5, BT.1361, IEC 61966-2-4 709, SMPTE RP177

Audio
ID                               : 2
Format                           : AAC
Format/Info                      : Advanced Audio Codec
Format profile                   : LC
Codec ID                         : 40
Duration                         : 2mn 19s
Bit rate mode                    : Constant
Bit rate                         : 149 Kbps
Nominal bit rate                 : 160 Kbps
Channel(s)                       : 2 channels
Channel positions                : Front: L R
Sampling rate                    : 48.0 KHz
Compression mode                 : Lossy
Stream size                      : 2.48 MiB (6%)
Language                         : English
Encoded date                     : UTC 2010-04-01 00:17:34
Tagged date                      : UTC 2010-04-01 00:23:35

```

Should give a definitive view of your mp3s...

Andrew

---

### Post by gabriella on 2011-03-19
> **andrew.46 said:**
> Can I ask what application you are using to read the bitrates? One well worth looking at is mediainfo, I show an example of the typical output generated by this application:

```

andrew@skamandros~/samples$ **[COLOR="Red"]mediainfo guardians.mov [/COLOR]**
General
Complete name                    : guardians.mov
Format                           : MPEG-4
Format profile                   : QuickTime
Codec ID                         : qt  
File size                        : 41.9 MiB
Duration                         : 2mn 19s
Overall bit rate                 : 2 517 Kbps
Movie name                       : Legend of the Guardians
Performer                        : Warner Bros. Pictures
Encoded date                     : UTC 2010-04-01 00:23:29
Tagged date                      : UTC 2010-04-01 00:23:35
Writing library                  : Apple QuickTime
Copyright                        : Copyright 2010

Video
ID                               : 1
Format                           : AVC
Format/Info                      : Advanced Video Codec
Format profile                   : Main@L3.0
Format settings, CABAC           : No
Format settings, ReFrames        : 2 frames
Codec ID                         : avc1
Codec ID/Info                    : Advanced Video Coding
Duration                         : 2mn 19s
Bit rate mode                    : Variable
Bit rate                         : 2 363 Kbps
Width                            : 848 pixels
Height                           : 358 pixels
Display aspect ratio             : 2.35:1
Frame rate mode                  : Variable
Frame rate                       : 23.976 fps
Minimum frame rate               : 23.970 fps
Maximum frame rate               : 24.212 fps
Color space                      : YUV
Chroma subsampling               : 4:2:0
Bit depth                        : 8 bits
Scan type                        : Progressive
Bits/(Pixel*Frame)               : 0.325
Stream size                      : 39.4 MiB (94%)
Language                         : English
Encoded date                     : UTC 2010-04-01 00:17:33
Tagged date                      : UTC 2010-04-01 00:23:35
Color primaries                  : BT.709-5, BT.1361, IEC 61966-2-4, SMPTE RP177
Transfer characteristics         : BT.709-5, BT.1361
Matrix coefficients              : BT.709-5, BT.1361, IEC 61966-2-4 709, SMPTE RP177

Audio
ID                               : 2
Format                           : AAC
Format/Info                      : Advanced Audio Codec
Format profile                   : LC
Codec ID                         : 40
Duration                         : 2mn 19s
Bit rate mode                    : Constant
Bit rate                         : 149 Kbps
Nominal bit rate                 : 160 Kbps
Channel(s)                       : 2 channels
Channel positions                : Front: L R
Sampling rate                    : 48.0 KHz
Compression mode                 : Lossy
Stream size                      : 2.48 MiB (6%)
Language                         : English
Encoded date                     : UTC 2010-04-01 00:17:34
Tagged date                      : UTC 2010-04-01 00:23:35

```

Should give a definitive view of your mp3s...

Andrew

Thanks I'll try that and see if that reveals more. I've just been right clicking on the .MP3 file and selecting Properties>Audio.

It's worth noting that whatever I use to rip the tracks Asunder/Sound Juicer/Rubyripper the result is the same, i.e 96 bps. HOWEVER, the file size seems to sugest that it's been ripped at high quality.

Also if I delete (purge) the application and re-install my personal preffernces have been retained so something strange is going on.

I will try what you sugested and report back. Thanks

---

### Post by gabriella on 2011-03-19
> **andrew.46 said:**
> Can I ask what application you are using to read the bitrates? One well worth looking at is mediainfo, I show an example of the typical output generated by this application:


Should give a definitive view of your mp3s...

Andrew

Could you (or anyone else) tell me how to add that into synaptic so I can install it.

Thanks !

---

### Post by andrew.46 on 2011-03-19
> **gabriella said:**
> Could you (or anyone else) tell me how to add that into synaptic so I can install it.

My apologies I had assumed that mediainfo was available from the Ubuntu repository :(. Looks like there is a PPA here:

[https://launchpad.net/~shiki/+archive/mediainfo](https://launchpad.net/~shiki/+archive/mediainfo)

It is a little out of date as the current version reports:

```

andrew@skamandros~$ mediainfo --version
MediaInfo Command line, 
MediaInfoLib - v0.7.43

```

But I guess this version has only been out for less than a day :).

Andrew

---

